<?xml version="1.0" encoding="UTF-8" standalone="no"?>
<!-- Created with Inkscape (http://www.inkscape.org/) -->

<svg
   xmlns:dc="http://purl.org/dc/elements/1.1/"
   xmlns:cc="http://creativecommons.org/ns#"
   xmlns:rdf="http://www.w3.org/1999/02/22-rdf-syntax-ns#"
   xmlns:svg="http://www.w3.org/2000/svg"
   xmlns="http://www.w3.org/2000/svg"
   xmlns:sodipodi="http://sodipodi.sourceforge.net/DTD/sodipodi-0.dtd"
   xmlns:inkscape="http://www.inkscape.org/namespaces/inkscape"
   width="193.80013"
   height="82.7089"
   id="svg2"
   version="1.1"
   inkscape:version="0.48.4 r9939"
   sodipodi:docname="XPPjl.svg"
   inkscape:export-filename="/home/luki/Desktop/XPPjl.png"
   inkscape:export-xdpi="121.45"
   inkscape:export-ydpi="121.45">
  <defs
     id="defs4" />
  <sodipodi:namedview
     id="base"
     pagecolor="#ffffff"
     bordercolor="#666666"
     borderopacity="1.0"
     inkscape:pageopacity="0.0"
     inkscape:pageshadow="2"
     inkscape:zoom="5.6"
     inkscape:cx="83.876644"
     inkscape:cy="52.013662"
     inkscape:document-units="px"
     inkscape:current-layer="text2985"
     showgrid="false"
     fit-margin-top="0"
     fit-margin-left="0"
     fit-margin-right="0"
     fit-margin-bottom="0"
     inkscape:window-width="1920"
     inkscape:window-height="1028"
     inkscape:window-x="0"
     inkscape:window-y="27"
     inkscape:window-maximized="1" />
  <metadata
     id="metadata7">
    <rdf:RDF>
      <cc:Work
         rdf:about="">
        <dc:format>image/svg+xml</dc:format>
        <dc:type
           rdf:resource="http://purl.org/dc/dcmitype/StillImage" />
        <dc:title></dc:title>
      </cc:Work>
    </rdf:RDF>
  </metadata>
  <g
     inkscape:label="Layer 1"
     inkscape:groupmode="layer"
     id="layer1"
     transform="translate(-153.17601,-92.382047)">
    <g
       style="font-size:20px;font-style:normal;font-variant:normal;font-weight:normal;font-stretch:normal;line-height:125%;letter-spacing:0px;word-spacing:0px;fill:#000000;fill-opacity:1;stroke:none;font-family:Rockwell;-inkscape-font-specification:Rockwell"
       id="text2985">
      <g
         id="g3051"
         transform="matrix(8.5853511,0,0,8.6132342,-1624.4098,-752.80564)">
        <path
           d="m 210.06697,102.71932 c 0,0.80131 -0.64959,1.4509 -1.4509,1.4509 -0.8013,0 -1.45089,-0.64959 -1.45089,-1.4509 0,-0.8013 0.64959,-1.45089 1.45089,-1.45089 0.80131,0 1.4509,0.64959 1.4509,1.45089 z"
           sodipodi:ry="1.4508928"
           sodipodi:rx="1.4508928"
           sodipodi:cy="102.71932"
           sodipodi:cx="208.61607"
           id="path3006"
           style="fill:#c83737;fill-opacity:1;fill-rule:nonzero;stroke:#a02c2c;stroke-width:0.23257758;stroke-linecap:round;stroke-linejoin:round;stroke-miterlimit:4;stroke-opacity:1;stroke-dasharray:none;stroke-dashoffset:0"
           sodipodi:type="arc" />
        <path
           d="m 210.06697,102.71932 c 0,0.80131 -0.64959,1.4509 -1.4509,1.4509 -0.8013,0 -1.45089,-0.64959 -1.45089,-1.4509 0,-0.8013 0.64959,-1.45089 1.45089,-1.45089 0.80131,0 1.4509,0.64959 1.4509,1.45089 z"
           sodipodi:ry="1.4508928"
           sodipodi:rx="1.4508928"
           sodipodi:cy="102.71932"
           sodipodi:cx="208.61607"
           id="path3006-1"
           style="font-size:20px;font-style:normal;font-variant:normal;font-weight:normal;font-stretch:normal;line-height:125%;letter-spacing:0px;word-spacing:0px;fill:#2ca02c;fill-opacity:1;fill-rule:nonzero;stroke:#217821;stroke-width:0.23257758;stroke-linecap:round;stroke-linejoin:round;stroke-miterlimit:4;stroke-opacity:1;stroke-dasharray:none;stroke-dashoffset:0;font-family:Rockwell;-inkscape-font-specification:Rockwell"
           sodipodi:type="arc"
           transform="translate(1.8113291,-3.0256942)" />
        <path
           d="m 210.06697,102.71932 c 0,0.80131 -0.64959,1.4509 -1.4509,1.4509 -0.8013,0 -1.45089,-0.64959 -1.45089,-1.4509 0,-0.8013 0.64959,-1.45089 1.45089,-1.45089 0.80131,0 1.4509,0.64959 1.4509,1.45089 z"
           sodipodi:ry="1.4508928"
           sodipodi:rx="1.4508928"
           sodipodi:cy="102.71932"
           sodipodi:cx="208.61607"
           id="path3006-8"
           style="font-size:20px;font-style:normal;font-variant:normal;font-weight:normal;font-stretch:normal;line-height:125%;letter-spacing:0px;word-spacing:0px;fill:#892ca0;fill-opacity:1;fill-rule:nonzero;stroke:#672178;stroke-width:0.23257758;stroke-linecap:round;stroke-linejoin:round;stroke-miterlimit:4;stroke-opacity:1;stroke-dasharray:none;stroke-dashoffset:0;font-family:Rockwell;-inkscape-font-specification:Rockwell"
           sodipodi:type="arc"
           transform="translate(3.579096,0.03633075)" />
      </g>
      <path
         d="m 188.96812,163.09111 0,-6.58869 5.72897,0 9.47379,-13.42974 -9.47379,-12.39234 -5.33771,0 0,-6.58868 19.98155,0 0,6.22418 -3.71686,0 5.78486,7.2616 5.2539,-7.2616 -3.52123,0 0,-6.22418 17.24283,0 0,6.58868 -5.39361,0 -9.22227,12.81291 10.17244,13.00917 5.58923,0 0,6.58869 -20.62432,0 0,-6.33636 3.88453,0 -6.09227,-7.99053 -5.78488,7.99053 3.99633,0 0,6.33636 -17.94149,0"
         style="font-weight:bold;font-family:Rockwell;-inkscape-font-specification:Rockwell Bold"
         id="path2990"
         inkscape:connector-curvature="0" />
      <path
         d="m 253.60777,156.50242 0,6.58869 -20.48461,0 0,-6.58869 4.94649,0 0,-25.82208 -4.94649,0 0,-6.58868 20.48461,0 c 4.76944,2e-5 8.44904,1.12149 11.03876,3.36442 2.60829,2.24299 3.91242,5.26163 3.91248,9.05596 -6e-5,2.1682 -0.4565,4.14014 -1.36938,5.91579 -0.91294,1.75701 -2.08669,3.11212 -3.52123,4.06538 -1.41597,0.93459 -3.04616,1.57944 -4.89058,1.93455 -1.82585,0.33646 -4.11743,0.50467 -6.87479,0.50467 l -3.71683,0 0,7.56999 5.42157,0 m -5.42157,-14.07459 1.50909,0 c 3.46531,3e-5 5.69168,-0.56071 6.67914,-1.6822 1.00605,-1.14016 1.50908,-2.55136 1.50911,-4.23359 -3e-5,-1.42051 -0.34469,-2.62612 -1.03401,-3.61678 -0.68936,-1.0093 -1.48119,-1.6261 -2.37544,-1.85044 -0.89431,-0.24289 -2.35681,-0.36445 -4.38755,-0.36448 l -1.90034,0 0,11.74749"
         style="font-weight:bold;font-family:Rockwell;-inkscape-font-specification:Rockwell Bold"
         id="path2992"
         inkscape:connector-curvature="0" />
      <path
         d="m 291.83821,156.50242 0,6.58869 -20.48459,0 0,-6.58869 4.9465,0 0,-25.82208 -4.9465,0 0,-6.58868 20.48459,0 c 4.76947,2e-5 8.44907,1.12149 11.03876,3.36442 2.60829,2.24299 3.91245,5.26163 3.91248,9.05596 -3e-5,2.1682 -0.4565,4.14014 -1.36935,5.91579 -0.91297,1.75701 -2.08669,3.11212 -3.52123,4.06538 -1.41597,0.93459 -3.04619,1.57944 -4.89061,1.93455 -1.82585,0.33646 -4.11744,0.50467 -6.87476,0.50467 l -3.71686,0 0,7.56999 5.42157,0 m -5.42157,-14.07459 1.50912,0 c 3.46528,3e-5 5.69168,-0.56071 6.67913,-1.6822 1.00603,-1.14016 1.50906,-2.55136 1.50909,-4.23359 -3e-5,-1.42051 -0.34469,-2.62612 -1.03399,-3.61678 -0.68938,-1.0093 -1.48118,-1.6261 -2.37543,-1.85044 -0.89431,-0.24289 -2.35684,-0.36445 -4.38758,-0.36448 l -1.90034,0 0,11.74749"
         style="font-weight:bold;font-family:Rockwell;-inkscape-font-specification:Rockwell Bold"
         id="path2994"
         inkscape:connector-curvature="0" />
      <path
         d="m 310.11505,142.23157 0,-6.28029 12.82732,0 0,26.27069 c 0,3.40181 -0.30741,5.92515 -0.92221,7.56997 -0.61484,1.64485 -1.81652,2.93455 -3.60508,3.86912 -1.78856,0.95325 -4.39688,1.42986 -7.82493,1.42989 -1.2669,-3e-5 -2.30092,-0.0468 -3.10205,-0.1401 l 0,-6.98121 c 0.57758,0.0746 1.11786,0.11225 1.62089,0.11225 1.65813,0 2.83188,-0.17742 3.52123,-0.53271 0.68933,-0.35514 1.13647,-0.82242 1.34142,-1.40185 0.2235,-0.56073 0.33534,-1.57941 0.33536,-3.05602 l 0,-20.85954 -4.19195,0"
         style="font-weight:bold;font-family:Rockwell;-inkscape-font-specification:Rockwell Bold"
         id="path2996"
         inkscape:connector-curvature="0"
         sodipodi:nodetypes="cccssccccsccccc" />
      <path
         d="m 330.20841,163.09111 0,-6.25224 4.24781,0 0,-26.49498 -4.24781,0 0,-6.25223 12.88321,0 0,32.74721 3.88452,0 0,6.25224 -16.76773,0"
         style="font-weight:bold;font-family:Rockwell;-inkscape-font-specification:Rockwell Bold"
         id="path2998"
         inkscape:connector-curvature="0" />
      <path
         transform="matrix(2.8616947,0,0,2.8709888,-278.88764,-168.22297)"
         sodipodi:type="arc"
         style="font-size:20px;font-style:normal;font-variant:normal;font-weight:normal;font-stretch:normal;line-height:125%;letter-spacing:0px;word-spacing:0px;fill:#808080;fill-opacity:1;fill-rule:nonzero;stroke:#666666;stroke-width:0.52331585;stroke-linecap:round;stroke-linejoin:round;stroke-miterlimit:4;stroke-opacity:1;stroke-dasharray:none;stroke-dashoffset:0;font-family:Rockwell;-inkscape-font-specification:Rockwell"
         id="path3006-8-0"
         sodipodi:cx="208.61607"
         sodipodi:cy="102.71932"
         sodipodi:rx="1.4508928"
         sodipodi:ry="1.4508928"
         d="m 210.06697,102.71932 c 0,0.80131 -0.64959,1.4509 -1.4509,1.4509 -0.8013,0 -1.45089,-0.64959 -1.45089,-1.4509 0,-0.8013 0.64959,-1.45089 1.45089,-1.45089 0.80131,0 1.4509,0.64959 1.4509,1.45089 z" />
    </g>
  </g>
</svg>
